<mxfile host="app.diagrams.net" modified="2023-12-12T08:22:18.313Z" agent="Mozilla/5.0 (Macintosh; Intel Mac OS X 10_15_7) AppleWebKit/537.36 (KHTML, like Gecko) Chrome/120.0.0.0 Safari/537.36" etag="ni8hb0xcDH_czWgh7q5w" version="22.1.7" type="github">
  <diagram name="第 1 页" id="tp897vbsZfjUVLFMzlsD">
    <mxGraphModel dx="1434" dy="736" grid="1" gridSize="10" guides="1" tooltips="1" connect="1" arrows="1" fold="1" page="1" pageScale="1" pageWidth="827" pageHeight="1169" math="0" shadow="0">
      <root>
        <mxCell id="0" />
        <mxCell id="1" parent="0" />
        <mxCell id="PVsN3WA9Rpf7EvWIVzJp-6" value="Firebase console" style="sketch=0;pointerEvents=1;shadow=0;dashed=0;html=1;strokeColor=none;labelPosition=center;verticalLabelPosition=bottom;verticalAlign=top;align=center;fillColor=#515151;shape=mxgraph.mscae.system_center.admin_console" vertex="1" parent="1">
          <mxGeometry x="160" y="90" width="50" height="36" as="geometry" />
        </mxCell>
        <mxCell id="PVsN3WA9Rpf7EvWIVzJp-8" style="edgeStyle=orthogonalEdgeStyle;rounded=0;orthogonalLoop=1;jettySize=auto;html=1;exitX=0.88;exitY=0.5;exitDx=0;exitDy=0;exitPerimeter=0;entryX=0.5;entryY=0;entryDx=0;entryDy=0;entryPerimeter=0;" edge="1" parent="1" source="PVsN3WA9Rpf7EvWIVzJp-6" target="PVsN3WA9Rpf7EvWIVzJp-19">
          <mxGeometry relative="1" as="geometry">
            <mxPoint x="184" y="167.45" as="sourcePoint" />
            <mxPoint x="665.04" y="209.03999999999996" as="targetPoint" />
          </mxGeometry>
        </mxCell>
        <mxCell id="PVsN3WA9Rpf7EvWIVzJp-9" value="1)Create Parameters/Conditions;&lt;br&gt;2)Publish changes;" style="edgeLabel;html=1;align=center;verticalAlign=middle;resizable=0;points=[];" vertex="1" connectable="0" parent="PVsN3WA9Rpf7EvWIVzJp-8">
          <mxGeometry x="-0.0852" relative="1" as="geometry">
            <mxPoint as="offset" />
          </mxGeometry>
        </mxCell>
        <mxCell id="PVsN3WA9Rpf7EvWIVzJp-15" style="edgeStyle=orthogonalEdgeStyle;rounded=0;orthogonalLoop=1;jettySize=auto;html=1;exitX=1;exitY=0.5;exitDx=0;exitDy=0;entryX=0.5;entryY=1;entryDx=0;entryDy=0;" edge="1" parent="1" source="PVsN3WA9Rpf7EvWIVzJp-10" target="PVsN3WA9Rpf7EvWIVzJp-19">
          <mxGeometry relative="1" as="geometry">
            <mxPoint x="666" y="276" as="targetPoint" />
            <Array as="points">
              <mxPoint x="666" y="318" />
              <mxPoint x="666" y="270" />
            </Array>
          </mxGeometry>
        </mxCell>
        <mxCell id="PVsN3WA9Rpf7EvWIVzJp-17" value="Fetch remote config from server" style="edgeLabel;html=1;align=center;verticalAlign=middle;resizable=0;points=[];" vertex="1" connectable="0" parent="PVsN3WA9Rpf7EvWIVzJp-15">
          <mxGeometry x="-0.3023" y="1" relative="1" as="geometry">
            <mxPoint y="1" as="offset" />
          </mxGeometry>
        </mxCell>
        <mxCell id="PVsN3WA9Rpf7EvWIVzJp-10" value="Game App" style="rounded=0;whiteSpace=wrap;html=1;verticalAlign=top;" vertex="1" parent="1">
          <mxGeometry x="110" y="235" width="160" height="165" as="geometry" />
        </mxCell>
        <mxCell id="PVsN3WA9Rpf7EvWIVzJp-16" style="edgeStyle=orthogonalEdgeStyle;rounded=0;orthogonalLoop=1;jettySize=auto;html=1;exitX=1;exitY=0.5;exitDx=0;exitDy=0;entryX=1;entryY=0.5;entryDx=0;entryDy=0;dashed=1;" edge="1" parent="1" source="PVsN3WA9Rpf7EvWIVzJp-11" target="PVsN3WA9Rpf7EvWIVzJp-10">
          <mxGeometry relative="1" as="geometry">
            <Array as="points">
              <mxPoint x="250" y="295" />
              <mxPoint x="250" y="318" />
            </Array>
          </mxGeometry>
        </mxCell>
        <mxCell id="PVsN3WA9Rpf7EvWIVzJp-11" value="Firebase SDK" style="rounded=1;whiteSpace=wrap;html=1;" vertex="1" parent="1">
          <mxGeometry x="150" y="280" width="70" height="30" as="geometry" />
        </mxCell>
        <mxCell id="PVsN3WA9Rpf7EvWIVzJp-12" value="Seg_A.json" style="image;aspect=fixed;html=1;points=[];align=center;fontSize=12;image=img/lib/azure2/general/File.svg;" vertex="1" parent="1">
          <mxGeometry x="140" y="330" width="32.46" height="40" as="geometry" />
        </mxCell>
        <mxCell id="PVsN3WA9Rpf7EvWIVzJp-13" value="Seg_B.son" style="image;aspect=fixed;html=1;points=[];align=center;fontSize=12;image=img/lib/azure2/general/File.svg;" vertex="1" parent="1">
          <mxGeometry x="207" y="330" width="32.46" height="40" as="geometry" />
        </mxCell>
        <mxCell id="PVsN3WA9Rpf7EvWIVzJp-19" value="Firebase Server" style="rounded=0;whiteSpace=wrap;html=1;" vertex="1" parent="1">
          <mxGeometry x="606" y="191" width="120" height="60" as="geometry" />
        </mxCell>
      </root>
    </mxGraphModel>
  </diagram>
</mxfile>
